<svg width="142" height="134" viewBox="0 0 142 134" fill="none" xmlns="http://www.w3.org/2000/svg">
<path d="M132.485 73.9916L132.232 75.7696L140.551 76.9415L140.804 75.1635L132.485 73.9916ZM134.543 68.0918C134.543 66.6775 135.762 65.6673 137.19 65.6673C138.661 65.6673 139.837 66.6775 139.795 68.0918C139.795 69.5062 138.577 70.5164 137.148 70.5164C135.72 70.5164 134.543 69.5062 134.543 68.0918ZM132.863 68.0514C132.863 70.5568 134.795 72.3752 137.19 72.3752C139.585 72.3752 141.56 70.5972 141.56 68.1323C141.56 65.6269 139.627 63.8085 137.232 63.8085C134.795 63.7681 132.863 65.5461 132.863 68.0514ZM133.955 56.6964L138.955 56.0095L139.165 57.3834C139.375 58.8381 138.493 59.9292 137.022 60.1312C135.51 60.3333 134.375 59.5251 134.165 58.0704L133.955 56.6964ZM132.022 55.1609L132.485 58.2724C132.863 60.7778 134.963 62.2729 137.274 61.9497C139.627 61.6264 141.182 59.6463 140.804 57.1005L140.341 53.989L132.022 55.1609ZM134.543 47.6044L136.854 46.9578L137.358 48.655C137.61 49.5036 137.4 50.1097 136.602 50.3118C135.888 50.5138 135.3 50.1502 135.047 49.342L134.543 47.6044ZM129.88 47.0791L130.426 48.7762L132.989 48.0489L133.409 49.3824L131.35 51.8069L131.98 53.787L134.291 51.0796C134.963 51.9686 136.014 52.4131 137.316 52.0494C138.115 51.8069 138.661 51.4028 138.955 50.8371C139.333 50.1906 139.375 49.342 139.081 48.3317L137.989 44.7757L129.88 47.0791ZM129.123 40.9773C128.493 39.6842 129.165 38.2698 130.468 37.7041C131.812 37.1384 133.283 37.5829 133.913 38.876C134.543 40.1691 133.871 41.5834 132.569 42.1491C131.224 42.7553 129.712 42.3108 129.123 40.9773ZM127.527 41.6642C128.577 43.9271 131.14 44.8161 133.325 43.8867C135.51 42.9169 136.518 40.5328 135.468 38.2698C134.417 36.0069 131.854 35.1179 129.669 36.0473C127.485 36.9767 126.476 39.3609 127.527 41.6642ZM123.325 30.9962L127.569 28.3292L128.367 29.4606C129.207 30.6729 128.871 32.0468 127.653 32.8146C126.392 33.6228 124.964 33.3399 124.166 32.1276L123.325 30.9962ZM120.93 30.39L122.737 33.0166C124.165 35.1583 126.728 35.6432 128.703 34.3906C130.72 33.1379 131.224 30.7133 129.754 28.5716L127.947 25.945L120.93 30.39ZM47.6137 10.3067L49.3364 9.61968L46.1012 2.14398L44.3786 2.83093L47.6137 10.3067ZM41.2694 11.5189C39.967 12.2059 38.4544 11.6806 37.7822 10.4683C37.0679 9.21559 37.404 7.76087 38.7065 7.07391C40.009 6.38696 41.5215 6.91228 42.1938 8.12456C42.908 9.37725 42.5719 10.832 41.2694 11.5189ZM42.0677 12.9737C44.3365 11.7614 45.0508 9.25602 43.8744 7.23555C42.698 5.21509 40.135 4.44732 37.8662 5.6596C35.5974 6.87187 34.8831 9.37724 36.0595 11.3977C37.236 13.4182 39.7989 14.1859 42.0677 12.9737ZM31.2278 17.4995L28.3708 13.499L29.5472 12.7312C30.8076 11.923 32.2362 12.1655 33.0765 13.3374C33.9168 14.5496 33.6647 15.8831 32.4462 16.7317L31.2278 17.4995ZM30.6816 19.8028L33.3706 18.0248C35.5554 16.5701 36.0175 14.1455 34.673 12.2463C33.3286 10.3471 30.7656 9.90255 28.6228 11.3573L25.9339 13.1353L30.6816 19.8028ZM22.7827 21.4596L21.1021 19.8028L22.4046 18.5501C23.0348 17.944 23.7491 17.8632 24.2953 18.3885C24.7995 18.8734 24.7574 19.5604 24.1272 20.1665L22.7827 21.4596ZM24.4633 25.7026L25.7658 24.4499L23.8751 22.591L24.8835 21.6212L28.0767 22.2274L29.6312 20.7726L26.0599 20.0857C26.5641 19.0755 26.4801 18.0248 25.5137 17.0954C24.9255 16.5297 24.2953 16.2468 23.623 16.2468C22.8247 16.2468 22.0264 16.5701 21.2702 17.2974L18.5392 19.8836L24.4633 25.7026ZM19.3795 29.4202C18.5392 30.5921 16.9426 30.7537 15.7662 29.9455C14.5898 29.1373 14.2116 27.6826 15.0519 26.5107C15.8922 25.3389 17.4888 25.1772 18.6652 25.9854C19.8837 26.7936 20.2198 28.2483 19.3795 29.4202ZM20.766 30.39C22.2785 28.3696 21.7323 25.7834 19.7996 24.4499C17.8249 23.1164 15.178 23.5205 13.6654 25.5409C12.1529 27.5614 12.6991 30.1476 14.6318 31.4811C16.6065 32.8146 19.2534 32.4105 20.766 30.39ZM13.1612 39.1184L8.70762 36.8151L9.37987 35.6028C10.0941 34.3097 11.4806 33.946 12.8251 34.5926C14.1696 35.2795 14.5898 36.613 13.8755 37.9061L13.1612 39.1184ZM13.7915 41.4218L15.346 38.6335C16.6065 36.411 15.8082 34.0269 13.7495 32.9358C11.6487 31.8448 9.16979 32.5721 7.95135 34.8351L6.39679 37.6233L13.7915 41.4218ZM31.6479 112.704L30.2614 111.532L24.7995 117.674L26.186 118.846L31.6479 112.704ZM35.8075 117.472C37.0679 118.24 37.32 119.735 36.5637 120.907C35.8075 122.119 34.2949 122.523 33.0345 121.796C31.774 121.028 31.5219 119.533 32.2782 118.361C33.0345 117.149 34.547 116.704 35.8075 117.472ZM36.7318 116.098C34.547 114.765 31.9 115.411 30.6396 117.391C29.3791 119.371 29.9253 121.877 32.1521 123.21C34.3369 124.544 36.9839 123.897 38.2443 121.917C39.5048 119.937 38.9166 117.391 36.7318 116.098ZM46.1852 122.927L44.0424 127.332L42.74 126.766C41.3535 126.16 40.8913 124.826 41.5215 123.533C42.1517 122.2 43.4962 121.755 44.8828 122.361L46.1852 122.927ZM48.5381 122.24L45.555 120.907C43.1601 119.816 40.7232 120.705 39.7149 122.766C38.7065 124.867 39.5888 127.17 41.9837 128.261L44.9668 129.595L48.5381 122.24ZM53.874 128.1L53.2018 130.322L51.4371 129.837C50.5548 129.595 50.1767 129.069 50.3867 128.342C50.5968 127.655 51.227 127.372 52.1094 127.615L53.874 128.1ZM56.8991 124.624L55.1345 124.139L54.3782 126.604L52.9917 126.2L52.0253 123.21L49.9666 122.604L51.101 125.917C49.9666 125.998 49.0002 126.564 48.6221 127.817C48.37 128.584 48.454 129.231 48.7481 129.797C49.1263 130.443 49.8405 130.969 50.8489 131.251L54.5463 132.302L56.8991 124.624ZM62.6972 126.968C64.1677 127.17 65.0501 128.463 64.84 129.837C64.6299 131.211 63.4535 132.221 61.983 132.019C60.5124 131.817 59.6301 130.524 59.8402 129.15C60.0502 127.736 61.2267 126.766 62.6972 126.968ZM62.9493 125.352C60.3864 124.988 58.2436 126.604 57.9075 128.867C57.5713 131.171 59.1259 133.272 61.6888 133.636C64.2518 133.999 66.3945 132.383 66.7307 130.12C67.1088 127.817 65.5542 125.715 62.9493 125.352ZM74.5455 127.493L74.5875 132.383H73.159C71.6465 132.383 70.6381 131.413 70.5961 129.958C70.5961 128.504 71.6044 127.534 73.117 127.493H74.5455ZM76.3942 125.877L73.117 125.917C70.47 125.917 68.6634 127.695 68.6634 129.999C68.6634 132.302 70.512 134.04 73.159 133.999L76.4362 133.959L76.3942 125.877Z" fill="#FEFEFE"/>
<path d="M9.84114 55.2186L10.0514 54.3285L6.77104 53.6408L2.60749 49.312L2.35515 50.3638L5.8458 53.924L1.13552 55.704L0.883191 56.7964L6.60281 54.5713L9.84114 55.2186ZM8.36918 66.4249L8.45329 65.4944L4.66823 65.2112L5.04674 60.5588L8.8318 60.842L8.91591 59.9115L0.546734 59.3046L0.46262 60.1946L4.20561 60.4778L3.82711 65.1303L0.0841142 64.8471L0 65.7776L8.36918 66.4249ZM8.66357 71.2796C8.5374 69.8232 7.94861 68.9331 6.98132 68.1645L6.35048 68.8118C7.19161 69.54 7.69628 70.2277 7.78039 71.32C7.90656 73.1001 6.5187 74.5565 4.58412 74.6779C2.64954 74.8397 1.00936 73.5856 0.883191 71.8055C0.799079 70.7132 1.21964 69.9041 1.85048 69.1759L1.13552 68.6095C0.420563 69.4591 -0.0841033 70.3491 0.0420651 71.846C0.21029 74.2329 2.3131 75.7702 4.7103 75.6084C7.06544 75.4466 8.83179 73.5856 8.66357 71.2796ZM10.0935 82.5668L9.92525 81.6768L7.69628 82.0409L5.63552 80.6249L9.16824 76.9434L8.95796 75.7702L4.87851 80.0585L0.672897 77.1862L0.883191 78.3594L6.60281 82.2027L1.64019 82.9714L1.80841 83.8614L10.0935 82.5668ZM11.9439 88.0688L11.6496 87.1788L8.45329 88.1093L2.60749 86.2888L2.94393 87.3002L7.78039 88.7566L4.58412 92.5189L4.92058 93.5708L8.78973 88.9588L11.9439 88.0688ZM15.4346 95.5127L12.701 90.7389L11.9439 91.1435L14.215 95.1486L7.61217 98.6278L8.07479 99.4369L15.4346 95.5127ZM16.9066 103.644L12.2804 104.373L14.8038 100.57L16.9066 103.644ZM20.7757 103.887L20.229 103.118L17.8318 103.483L15.3084 99.801L16.6122 97.8187L16.0654 97.0096L11.0608 104.575L11.5654 105.303L20.7757 103.887ZM24.6028 109.591L22.3318 111.452L20.6075 109.51C19.6402 108.418 19.5561 107.528 20.2711 106.962C20.986 106.355 21.9533 106.598 22.7944 107.528L24.6028 109.591ZM21.701 111.978L19.514 113.799L17.8739 111.938C17.0748 111.048 17.0748 110.239 17.7056 109.713C18.4627 109.065 19.3879 109.349 20.1028 110.158L21.701 111.978ZM25.8645 109.753L23.4253 107.002C22.2477 105.667 20.7757 105.303 19.6823 106.193C18.7991 106.921 18.8832 107.892 19.3038 108.782C18.6729 108.499 17.7898 108.337 16.9486 109.025C16.5281 109.389 16.3178 109.794 16.2757 110.279C16.2337 110.926 16.5281 111.655 17.1168 112.342L19.4299 114.972L25.8645 109.753Z" fill="#FEFEFE"/>
<path d="M90.7673 124.949L89.8394 125.233L90.8516 128.318L88.996 134L90.0503 133.675L91.5264 128.967L95.4907 132.052L96.5873 131.727L91.7373 128.034L90.7673 124.949ZM101.479 120.201L100.636 120.647L102.449 123.853L98.1899 126.126L96.3764 122.92L95.5329 123.366L99.5816 130.469L100.425 130.023L98.6116 126.857L102.871 124.584L104.685 127.75L105.528 127.303L101.479 120.201ZM105.655 117.522C104.389 118.374 103.926 119.348 103.757 120.525L104.642 120.688C104.853 119.632 105.191 118.861 106.161 118.212C107.679 117.157 109.703 117.562 110.842 119.105C111.981 120.647 111.728 122.595 110.209 123.65C109.282 124.3 108.354 124.34 107.384 124.219L107.257 125.112C108.396 125.274 109.45 125.193 110.716 124.34C112.74 122.96 113.035 120.404 111.643 118.537C110.209 116.629 107.637 116.142 105.655 117.522ZM114.891 110.338L114.216 110.947L115.776 112.53L115.692 115.006L110.547 114.275L109.661 115.046L115.65 115.898L115.523 120.85L116.409 120.038L116.493 113.301L119.952 116.832L120.626 116.223L114.891 110.338ZM118.855 106.036L118.222 106.726L120.753 108.836L122.313 114.6L123.03 113.788L121.681 109.039L126.742 109.607L127.501 108.755L121.343 108.106L118.855 106.036ZM123.789 99.3391L120.795 104.007L121.554 104.453L124.042 100.557L130.453 104.412L130.959 103.641L123.789 99.3391ZM130.326 94.0628L133.236 97.6345L128.555 97.3098L130.326 94.0628ZM128.682 90.6942L128.218 91.5059L129.694 93.3729L127.543 97.2692L125.097 97.1068L124.633 97.9592L133.953 98.5274L134.375 97.7562L128.682 90.6942ZM131.634 84.4844L134.459 85.4179L133.574 87.8531C133.068 89.1925 132.351 89.7201 131.465 89.436C130.537 89.1113 130.284 88.2184 130.706 87.082L131.634 84.4844ZM135.219 85.702L137.96 86.6355L137.116 88.949C136.737 90.0448 135.978 90.4912 135.219 90.2071C134.249 89.8824 134.038 88.9895 134.417 87.9749L135.219 85.702ZM131.128 83.348L129.905 86.7573C129.314 88.4213 129.694 89.8012 131.043 90.2883C132.14 90.6536 132.983 90.1259 133.574 89.3142C133.616 90.0042 133.953 90.8159 134.965 91.1406C135.514 91.303 135.978 91.303 136.442 91.1C137.032 90.8159 137.538 90.2071 137.875 89.3548L139.056 86.1079L131.128 83.348Z" fill="#FEFEFE"/>
<path d="M112.088 23.2467L112.801 23.852L115.024 21.4709L120.98 20.0987L120.141 19.3722L115.234 20.5426L115.947 15.7399L115.108 15.0135L114.311 20.8655L112.088 23.2467ZM102.652 16.5471L103.449 17.0314L105.504 13.9641L109.572 16.4664L107.517 19.5336L108.314 20.0179L112.843 13.2377L112.046 12.7534L110.033 15.7803L105.965 13.278L107.978 10.2511L107.223 9.76681L102.652 16.5471ZM98.2061 14.3677C99.5482 15.0538 100.639 15.0135 101.855 14.6906L101.603 13.8431C100.555 14.1256 99.674 14.1659 98.6255 13.6412C96.9898 12.7937 96.4865 10.8969 97.3673 9.24216C98.29 7.58745 100.219 6.94171 101.855 7.78924C102.861 8.3139 103.323 9.08072 103.658 9.96862L104.539 9.68611C104.162 8.63678 103.658 7.74888 102.316 7.06278C100.135 5.93274 97.6609 6.82064 96.5285 8.83858C95.3961 10.8565 96.0671 13.278 98.2061 14.3677ZM87.2596 10.1301L88.1404 10.4126L88.8534 8.35426L91.1181 7.26459L92.8797 11.9462L94.012 12.3094L91.9989 6.86098L96.5704 4.64126L95.3961 4.27802L89.2308 7.34529L90.8246 2.78476L89.9438 2.50225L87.2596 10.1301ZM81.4299 9.00002L82.3946 9.16142L82.8978 6.01345L87.1338 1.73543L86.0434 1.57399L82.5623 5.12555L80.4233 0.726459L79.2909 0.56502L81.9332 5.89237L81.4299 9.00002ZM72.9999 8.07175L78.6618 8.47533L78.7457 7.6278L74.0484 7.30492L74.6355 0.080704L73.6709 0L72.9999 8.07175ZM64.9054 5.36772L66.4991 1.13004L68.722 5.08521L64.9054 5.36772ZM62.8084 8.5157L63.773 8.43496L64.6118 6.25562L69.1833 5.93274L70.3157 7.99105L71.3223 7.91031L66.8766 0.080704L65.9958 0.161439L62.8084 8.5157ZM55.7624 9.00002L55.0913 6.21525L57.6916 5.65023C59.1176 5.32736 59.9983 5.65023 60.208 6.49776C60.4177 7.38565 59.7887 8.11211 58.5304 8.35426L55.7624 9.00002ZM54.8816 5.44843L54.2106 2.7444L56.685 2.17938C57.8594 1.93722 58.6143 2.30046 58.7821 3.06727C58.9918 3.99553 58.3627 4.68162 57.2303 4.92377L54.8816 5.44843ZM55.0494 10.009L58.6982 9.20179C60.5016 8.7982 61.4663 7.74889 61.1307 6.37669C60.8791 5.287 59.9564 4.92376 58.9079 4.84304C59.4951 4.43945 59.9984 3.75337 59.7467 2.7444C59.6209 2.21973 59.3273 1.8565 58.9079 1.57399C58.3627 1.21076 57.5239 1.13003 56.6012 1.37218L53.1201 2.13901L55.0494 10.009Z" fill="#FEFEFE"/>
<path fill-rule="evenodd" clip-rule="evenodd" d="M84.9162 66.6405C88.8569 68.3746 91.6238 72.246 91.6238 76.6821C91.6238 82.7716 86.4673 87.7319 80.137 87.7319H60.8105C60.2236 87.7319 59.7205 87.248 59.7205 86.6834V49.5011C59.7205 48.9365 60.2236 48.4526 60.8105 48.4526H75.6093C81.9396 48.4526 87.0961 53.4129 87.0961 59.5024C87.0961 61.9624 86.2577 64.2611 84.7904 66.1162C84.7066 66.1968 84.7065 66.3178 84.7485 66.3985C84.7485 66.5195 84.8323 66.6001 84.9162 66.6405ZM45.5506 32.1601H79.3823C94.0134 32.1601 105.961 43.6939 105.961 57.728V78.4162C105.961 92.4906 93.9715 103.984 79.3823 103.984H45.5506C44.5025 103.984 43.6641 103.178 43.6641 102.169V34.0152C43.6641 33.007 44.5444 32.1601 45.5506 32.1601Z" fill="#FEFEFE"/>
</svg>
